<svg width="141" height="33" viewBox="0 0 141 33" fill="none" xmlns="http://www.w3.org/2000/svg">
<path d="M10.7622 16.1467C10.7622 13.1743 13.1705 10.7641 16.1421 10.7641C19.1136 10.7641 21.5232 13.1743 21.5232 16.1467C21.5232 19.1192 19.1136 21.5294 16.1421 21.5294C13.1705 21.5294 10.7622 19.1192 10.7622 16.1467ZM7.85332 16.1467C7.85332 20.726 11.5642 24.4379 16.1421 24.4379C20.72 24.4379 24.4308 20.726 24.4308 16.1467C24.4308 11.5675 20.72 7.85558 16.1421 7.85558C11.5642 7.85558 7.85332 11.5675 7.85332 16.1467ZM22.8219 7.52683C22.8218 7.91006 22.9352 8.28472 23.148 8.60344C23.3607 8.92217 23.6631 9.17064 24.017 9.31743C24.3709 9.46422 24.7603 9.50275 25.1361 9.42814C25.5119 9.35353 25.8571 9.16912 26.1281 8.89825C26.3991 8.62738 26.5838 8.28221 26.6587 7.90638C26.7335 7.53055 26.6953 7.14095 26.5489 6.78684C26.4024 6.43272 26.1543 6.13001 25.8358 5.91698C25.5173 5.70394 25.1429 5.59015 24.7598 5.59H24.759C24.2454 5.59024 23.753 5.79435 23.3898 6.1575C23.0266 6.52066 22.8224 7.01316 22.8219 7.52683ZM9.62068 29.2898C8.04689 29.2181 7.19149 28.9559 6.62303 28.7344C5.86939 28.4409 5.33166 28.0913 4.7663 27.5266C4.20094 26.9618 3.85098 26.4245 3.55888 25.6706C3.33728 25.1022 3.07513 24.2463 3.00359 22.6721C2.92533 20.9701 2.90971 20.4588 2.90971 16.1469C2.90971 11.8349 2.92662 11.3251 3.00359 9.62165C3.07526 8.04741 3.33934 7.19318 3.55888 6.62313C3.85227 5.86928 4.20172 5.3314 4.7663 4.76587C5.33089 4.20035 5.8681 3.85029 6.62303 3.5581C7.19123 3.33643 8.04689 3.07421 9.62068 3.00265C11.3222 2.92437 11.8333 2.90874 16.1421 2.90874C20.4509 2.90874 20.9625 2.92566 22.6654 3.00265C24.2392 3.07434 25.0932 3.3385 25.6631 3.5581C26.4167 3.85029 26.9544 4.20112 27.5198 4.76587C28.0852 5.33062 28.4338 5.86928 28.7272 6.62313C28.9488 7.1915 29.211 8.04741 29.2825 9.62165C29.3608 11.3251 29.3764 11.8349 29.3764 16.1469C29.3764 20.4588 29.3608 20.9687 29.2825 22.6721C29.2108 24.2463 28.9474 25.102 28.7272 25.6706C28.4338 26.4245 28.0844 26.9623 27.5198 27.5266C26.9552 28.0908 26.4167 28.4409 25.6631 28.7344C25.0949 28.956 24.2392 29.2182 22.6654 29.2898C20.9639 29.3681 20.4528 29.3837 16.1421 29.3837C11.8314 29.3837 11.3217 29.3681 9.62068 29.2898ZM9.48702 0.0977847C7.7686 0.176064 6.59436 0.448621 5.56889 0.847768C4.50687 1.25996 3.60782 1.81296 2.70942 2.7102C1.81101 3.60744 1.2596 4.50817 0.847524 5.5705C0.448491 6.59691 0.176013 7.77084 0.0977564 9.48976C0.0182083 11.2114 0 11.7618 0 16.1467C0 20.5317 0.0182083 21.0821 0.0977564 22.8037C0.176013 24.5228 0.448491 25.6966 0.847524 26.723C1.2596 27.7847 1.81114 28.6864 2.70942 29.5833C3.60769 30.4801 4.50687 31.0324 5.56889 31.4457C6.5963 31.8449 7.7686 32.1174 9.48702 32.1957C11.2091 32.274 11.7584 32.2935 16.1421 32.2935C20.5258 32.2935 21.076 32.2753 22.7971 32.1957C24.5157 32.1174 25.6891 31.8449 26.7153 31.4457C27.7766 31.0324 28.6763 30.4805 29.5747 29.5833C30.4731 28.686 31.0234 27.7847 31.4366 26.723C31.8357 25.6966 32.1094 24.5226 32.1864 22.8037C32.2647 21.0808 32.2829 20.5317 32.2829 16.1467C32.2829 11.7618 32.2647 11.2114 32.1864 9.48976C32.1081 7.77072 31.8357 6.59627 31.4366 5.5705C31.0234 4.50882 30.4717 3.60886 29.5747 2.7102C28.6778 1.81154 27.7766 1.25996 26.7166 0.847768C25.6892 0.448621 24.5156 0.174772 22.7984 0.0977847C21.0773 0.0195053 20.527 0 16.1434 0C11.7597 0 11.2091 0.0182135 9.48702 0.0977847Z" fill="#606060"/>
<path fill-rule="evenodd" clip-rule="evenodd" d="M90.8799 6.49332C91.1562 5.64378 90.8799 5.01953 89.565 5.01953H85.2169C84.1113 5.01953 83.6016 5.55879 83.3252 6.15343C83.3252 6.15343 81.114 11.1232 77.9816 14.3514C76.9682 15.2858 76.5075 15.5832 75.9547 15.5832C75.6784 15.5832 75.2783 15.2858 75.2783 14.4364V6.49332C75.2783 5.47387 74.9574 5.01953 74.036 5.01953H67.2033C66.5124 5.01953 66.0969 5.49268 66.0969 5.9411C66.0969 6.90752 67.663 7.13039 67.8244 9.84892V15.7531C67.8244 17.0476 67.5709 17.2823 67.0181 17.2823C65.5441 17.2823 61.9585 12.2903 59.8319 6.57824C59.4151 5.46801 58.9971 5.01953 57.8859 5.01953H53.5378C52.2954 5.01953 52.047 5.55879 52.047 6.15343C52.047 7.21538 53.5211 12.4825 58.9107 19.4485C62.5037 24.2058 67.566 26.7846 72.1725 26.7846C74.9364 26.7846 75.2783 26.2119 75.2783 25.2253V21.6297C75.2783 20.4842 75.5402 20.2556 76.4154 20.2556C77.0603 20.2556 78.1659 20.5529 80.7456 22.8466C83.6937 25.5651 84.1797 26.7846 85.838 26.7846H90.1862C91.4285 26.7846 92.0496 26.2119 91.6913 25.0815C91.2992 23.955 89.8916 22.3205 88.0239 20.383C87.0104 19.2786 85.4903 18.0894 85.0296 17.4946C84.3847 16.7301 84.5689 16.3902 85.0296 15.7106C85.0296 15.7106 90.3271 8.82947 90.8799 6.49332Z" fill="#606060"/>
<path d="M113.463 14.2542C113.463 14.2542 126.437 8.64541 130.937 6.67042C132.662 5.88049 138.512 3.3525 138.512 3.3525C138.512 3.3525 141.212 2.24659 140.987 4.93247C140.912 6.03848 140.312 9.9093 139.712 14.0962C138.812 20.0211 137.837 26.4988 137.837 26.4988C137.837 26.4988 137.687 28.3158 136.412 28.6318C135.137 28.9478 133.037 27.5259 132.662 27.2098C132.362 26.9729 127.037 23.4179 125.087 21.68C124.562 21.206 123.962 20.2581 125.162 19.1521C127.862 16.5451 131.087 13.3063 133.037 11.2523C133.937 10.3043 134.837 8.0924 131.087 10.7783C125.762 14.6492 120.513 18.2831 120.513 18.2831C120.513 18.2831 119.313 19.073 117.063 18.362C114.813 17.6512 112.188 16.7031 112.188 16.7031C112.188 16.7031 110.388 15.5182 113.463 14.2542Z" fill="#606060"/>
</svg>
