<svg xmlns="http://www.w3.org/2000/svg" width="35" height="35" viewBox="0 0 35 35" fill="none">
<path fill-rule="evenodd" clip-rule="evenodd" d="M96.0362 6.89627C96.3282 5.99572 96.0362 5.33398 94.6467 5.33398H90.0519C88.8836 5.33398 88.345 5.90562 88.0529 6.53597C88.0529 6.53597 85.7162 11.8041 82.4061 15.2262C81.3352 16.2167 80.8484 16.5319 80.2642 16.5319C79.9722 16.5319 79.5494 16.2167 79.5494 15.3163V6.89627C79.5494 5.81561 79.2103 5.33398 78.2367 5.33398H71.0162C70.2861 5.33398 69.8471 5.83555 69.8471 6.31089C69.8471 7.33534 71.502 7.57159 71.6726 10.4534V16.7121C71.6726 18.0843 71.4047 18.3331 70.8206 18.3331C69.2629 18.3331 65.4739 13.0414 63.2266 6.98629C62.7862 5.80939 62.3445 5.33398 61.1702 5.33398H56.5754C55.2626 5.33398 55 5.90562 55 6.53597C55 7.66168 56.5577 13.245 62.2531 20.6294C66.05 25.6723 71.3996 28.406 76.2674 28.406C79.1881 28.406 79.5495 27.7988 79.5495 26.753V22.9416C79.5495 21.7273 79.8262 21.4849 80.751 21.4849C81.4325 21.4849 82.6008 21.8001 85.3269 24.2315C88.4423 27.1132 88.9559 28.406 90.7083 28.406H95.3031C96.6159 28.406 97.2723 27.7988 96.8937 26.6006C96.4793 25.4065 94.9918 23.6738 93.0181 21.62C91.9472 20.4493 90.3408 19.1886 89.8539 18.5581C89.1725 17.7477 89.3672 17.3874 89.8539 16.6671C89.8539 16.6671 95.4521 9.37269 96.0362 6.89627Z" fill="#606060"/>
</svg>