<svg width="35" height="35" viewBox="0 0 35 35" fill="#000" xmlns="http://www.w3.org/2000/svg">
  <path
    d="M11.3729 17.1163C11.3729 13.9654 13.9178 11.4104 17.0579 11.4104C20.1981 11.4104 22.7444 13.9654 22.7444 17.1163C22.7444 20.2672 20.1981 22.8222 17.0579 22.8222C13.9178 22.8222 11.3729 20.2672 11.3729 17.1163ZM8.29889 17.1163C8.29889 21.9705 12.2203 25.9053 17.0579 25.9053C21.8956 25.9053 25.817 21.9705 25.817 17.1163C25.817 12.2621 21.8956 8.32728 17.0579 8.32728C12.2203 8.32728 8.29889 12.2621 8.29889 17.1163ZM24.1168 7.97879C24.1166 8.38502 24.2365 8.78218 24.4613 9.12004C24.6861 9.45791 25.0057 9.72129 25.3797 9.8769C25.7536 10.0325 26.1652 10.0734 26.5623 9.99426C26.9594 9.91517 27.3242 9.71969 27.6106 9.43256C27.897 9.14542 28.0921 8.77952 28.1712 8.38112C28.2503 7.98273 28.21 7.56973 28.0552 7.19436C27.9004 6.81898 27.6382 6.49809 27.3016 6.27227C26.9651 6.04644 26.5694 5.92582 26.1646 5.92566H26.1637C25.6211 5.92591 25.1007 6.14228 24.7169 6.52724C24.3331 6.9122 24.1173 7.43427 24.1168 7.97879ZM10.1665 31.0485C8.50345 30.9725 7.59952 30.6946 6.99881 30.4597C6.2024 30.1486 5.63417 29.7781 5.03673 29.1794C4.4393 28.5808 4.06948 28.0111 3.7608 27.212C3.52663 26.6095 3.24961 25.7022 3.17401 24.0335C3.09131 22.2293 3.0748 21.6873 3.0748 17.1164C3.0748 12.5456 3.09267 12.0051 3.17401 10.1994C3.24974 8.53062 3.52881 7.6251 3.7608 7.02083C4.07084 6.2217 4.44011 5.65152 5.03673 5.05204C5.63335 4.45256 6.20104 4.08148 6.99881 3.77174C7.59924 3.53677 8.50345 3.2588 10.1665 3.18294C11.9646 3.09996 12.5047 3.0834 17.0579 3.0834C21.6112 3.0834 22.1519 3.10133 23.9514 3.18294C25.6145 3.25894 26.5169 3.53896 27.1191 3.77174C27.9155 4.08148 28.4838 4.45338 29.0812 5.05204C29.6786 5.6507 30.0471 6.2217 30.3571 7.02083C30.5913 7.62332 30.8683 8.53062 30.9439 10.1994C31.0266 12.0051 31.0431 12.5456 31.0431 17.1164C31.0431 21.6873 31.0266 22.2278 30.9439 24.0335C30.8682 25.7022 30.5898 26.6093 30.3571 27.212C30.0471 28.0111 29.6778 28.5813 29.0812 29.1794C28.4846 29.7775 27.9155 30.1486 27.1191 30.4597C26.5187 30.6947 25.6145 30.9727 23.9514 31.0485C22.1534 31.1315 21.6132 31.1481 17.0579 31.1481C12.5027 31.1481 11.964 31.1315 10.1665 31.0485ZM10.0253 0.103656C8.20937 0.186636 6.96851 0.475559 5.88485 0.898673C4.76258 1.33562 3.81252 1.92182 2.86314 2.87293C1.91376 3.82405 1.33107 4.77887 0.89561 5.90498C0.473938 6.99303 0.186 8.23745 0.103303 10.0596C0.0192414 11.8846 0 12.4681 0 17.1163C0 21.7645 0.0192414 22.348 0.103303 24.173C0.186 25.9953 0.473938 27.2395 0.89561 28.3276C1.33107 29.453 1.9139 30.4089 2.86314 31.3596C3.81238 32.3103 4.76258 32.8957 5.88485 33.3339C6.97056 33.757 8.20937 34.0459 10.0253 34.1289C11.845 34.2119 12.4256 34.2326 17.0579 34.2326C21.6903 34.2326 22.2718 34.2133 24.0906 34.1289C25.9066 34.0459 27.1467 33.757 28.231 33.3339C29.3526 32.8957 30.3034 32.3108 31.2527 31.3596C32.2021 30.4085 32.7836 29.453 33.2203 28.3276C33.6419 27.2395 33.9312 25.9951 34.0126 24.173C34.0953 22.3466 34.1145 21.7645 34.1145 17.1163C34.1145 12.4681 34.0953 11.8846 34.0126 10.0596C33.9299 8.23732 33.6419 6.99234 33.2203 5.90498C32.7836 4.77955 32.2006 3.82556 31.2527 2.87293C30.3049 1.92031 29.3526 1.33562 28.2324 0.898673C27.1467 0.475559 25.9065 0.185267 24.092 0.103656C22.2732 0.0206765 21.6917 0 17.0593 0C12.4269 0 11.845 0.0193072 10.0253 0.103656Z"
    fill="#606060" />
</svg>
  