<svg xmlns="http://www.w3.org/2000/svg" width="35" height="35" viewBox="0 0 35 35" fill="#000">
<path d="M119.901 15.1176C119.901 15.1176 133.611 9.17208 138.366 7.0785C140.189 6.24114 146.371 3.56135 146.371 3.56135C146.371 3.56135 149.224 2.38905 148.986 5.23619C148.907 6.40862 148.273 10.5119 147.639 14.9502C146.688 21.2308 145.657 28.0975 145.657 28.0975C145.657 28.0975 145.499 30.0236 144.152 30.3586C142.804 30.6935 140.585 29.1863 140.189 28.8512C139.872 28.6 134.245 24.8316 132.185 22.9893C131.63 22.4869 130.996 21.4821 132.264 20.3096C135.117 17.5462 138.525 14.1128 140.585 11.9356C141.536 10.9306 142.487 8.58587 138.525 11.433C132.898 15.5364 127.35 19.3885 127.35 19.3885C127.35 19.3885 126.082 20.2258 123.705 19.4722C121.327 18.7186 118.553 17.7136 118.553 17.7136C118.553 17.7136 116.651 16.4575 119.901 15.1176Z" fill="#606060"/>
</svg>