<svg width="24" height="24" viewBox="0 0 24 24" fill="none" xmlns="http://www.w3.org/2000/svg">
<path d="M12.4766 17C12.7207 17 12.9355 16.9121 13.1211 16.7266L20.6895 8.98242C20.8652 8.81641 20.9531 8.60156 20.9531 8.34766C20.9531 7.83984 20.5723 7.44922 20.0645 7.44922C19.8105 7.44922 19.5957 7.55664 19.4297 7.71289L12.4766 14.8223L5.52344 7.71289C5.35742 7.55664 5.13281 7.44922 4.88867 7.44922C4.38086 7.44922 4 7.83984 4 8.34766C4 8.60156 4.08789 8.81641 4.25391 8.98242L11.832 16.7266C12.0078 16.9121 12.2324 17 12.4766 17Z" fill="#5555FF"/>
</svg>
